<svg width="32" height="32" viewBox="0 0 32 32" fill="none" xmlns="http://www.w3.org/2000/svg">
<path d="M27.459 10.9281L30.7515 7.60879C30.849 7.51047 30.8945 7.37207 30.8743 7.2352C30.8541 7.09826 30.7706 6.97885 30.649 6.91293L19.8386 1.05367C19.6676 0.961035 19.456 0.99168 19.3185 1.12926L15.9998 4.44795L12.6814 1.12949C12.5987 1.04629 12.488 1 12.3714 1C12.2982 1 12.2261 1.01869 12.1616 1.05391L8.68942 2.93523C8.58629 2.99148 8.51129 3.08406 8.4779 3.19656C8.4445 3.30906 8.4568 3.42801 8.51247 3.53113C8.58981 3.67293 8.73805 3.76146 8.89919 3.76146C8.97184 3.76146 9.0445 3.74271 9.10837 3.70814L12.2917 1.98262L15.2723 4.96322L5.24071 10.3854L2.2853 7.40588L7.56272 4.54545C7.66643 4.48979 7.74143 4.39721 7.77483 4.28471C7.80823 4.17221 7.79592 4.05326 7.73967 3.95014C7.66292 3.80834 7.51467 3.71986 7.35354 3.71986C7.28088 3.71986 7.20881 3.73855 7.14436 3.77312L1.35131 6.91316C1.23003 6.97814 1.14565 7.09891 1.12573 7.23543C1.10581 7.37131 1.15157 7.51076 1.24878 7.60867L4.54098 10.9282L1.24854 14.2474C1.1511 14.3457 1.10563 14.4841 1.12579 14.621C1.146 14.7579 1.2295 14.8773 1.35114 14.9433L4.72104 16.7697V24.7001C4.72098 24.7152 4.72174 24.7304 4.72327 24.7453C4.72391 24.7517 4.72514 24.7579 4.72602 24.7642C4.72713 24.7719 4.72801 24.7796 4.72954 24.7871C4.73141 24.7967 4.73399 24.8059 4.73645 24.8153C4.73762 24.8195 4.7385 24.8239 4.73979 24.8281C4.74266 24.8376 4.74612 24.8468 4.74958 24.856C4.7511 24.8601 4.75239 24.8643 4.75409 24.8683C4.75749 24.8767 4.76141 24.8846 4.76528 24.8925C4.76768 24.8975 4.76985 24.9025 4.77243 24.9074C4.77594 24.9139 4.77987 24.9202 4.78362 24.9265C4.78725 24.9326 4.79071 24.9387 4.79458 24.9446C4.7978 24.9494 4.80143 24.9541 4.80489 24.9588C4.80987 24.9657 4.81479 24.9726 4.82018 24.9793C4.82317 24.983 4.82651 24.9864 4.82962 24.99C4.83583 24.9971 4.84204 25.0043 4.84872 25.011C4.85217 25.0145 4.85598 25.0176 4.85956 25.0211C4.86624 25.0274 4.8728 25.0337 4.87989 25.0396C4.88674 25.0452 4.89401 25.0504 4.90116 25.0556C4.90538 25.0587 4.9093 25.062 4.91364 25.065C4.92624 25.0735 4.9393 25.0814 4.95278 25.0887L15.7888 30.946C15.8044 30.9546 15.8207 30.962 15.8374 30.9687C15.841 30.9701 15.8447 30.9713 15.8484 30.9726C15.8606 30.9771 15.873 30.9811 15.8857 30.9845C15.8902 30.9857 15.8948 30.9869 15.8993 30.988C15.9116 30.9909 15.9241 30.9931 15.9368 30.995C15.9411 30.9955 15.9453 30.9964 15.9497 30.9969C15.9662 30.9988 15.9829 31 16 31C16.017 31 16.0338 30.9988 16.0503 30.9969C16.0547 30.9964 16.0589 30.9955 16.0633 30.995C16.0759 30.9931 16.0884 30.9909 16.1007 30.988C16.1052 30.9869 16.1098 30.9857 16.1143 30.9845C16.127 30.9811 16.1394 30.9771 16.1515 30.9726C16.1552 30.9713 16.1589 30.9701 16.1625 30.9687C16.1792 30.962 16.1955 30.9546 16.211 30.946L27.0471 25.0887C27.0606 25.0814 27.0736 25.0735 27.0862 25.065C27.0906 25.062 27.0945 25.0587 27.0987 25.0556C27.1059 25.0503 27.1132 25.0452 27.12 25.0396C27.1271 25.0337 27.1336 25.0274 27.1403 25.0211C27.1439 25.0176 27.1477 25.0145 27.1511 25.011C27.1578 25.0043 27.164 24.9971 27.1702 24.99C27.1733 24.9864 27.1767 24.983 27.1797 24.9793C27.1851 24.9727 27.19 24.9657 27.195 24.9588C27.1984 24.9541 27.2021 24.9494 27.2053 24.9446C27.2091 24.9387 27.2126 24.9326 27.2162 24.9265C27.22 24.9202 27.224 24.9139 27.2274 24.9074C27.23 24.9025 27.2322 24.8975 27.2346 24.8925C27.2384 24.8846 27.2424 24.8767 27.2458 24.8683C27.2475 24.8643 27.2488 24.8601 27.2503 24.856C27.2537 24.8468 27.2572 24.8376 27.2601 24.8281C27.2614 24.8239 27.2622 24.8196 27.2634 24.8153C27.2659 24.8059 27.2684 24.7967 27.2703 24.7871C27.2718 24.7796 27.2727 24.7719 27.2738 24.7642C27.2747 24.7579 27.276 24.7517 27.2766 24.7453C27.2781 24.7303 27.2789 24.7152 27.2788 24.7001V16.7697L30.6485 14.9433C30.7698 14.8777 30.8542 14.757 30.8741 14.6211C30.894 14.4845 30.8483 14.3451 30.7517 14.2472L27.459 10.9281ZM19.7081 1.98268L29.7146 7.40617L26.7592 10.3855L16.7277 4.96305L19.7081 1.98268ZM5.36797 16.1208L2.28547 14.45L5.24083 11.4706L15.2724 16.8931L12.2919 19.8735L5.37172 16.1228C5.37049 16.1221 5.36926 16.1214 5.36797 16.1208ZM15.5606 29.8235L5.59989 24.4393V17.2461L12.1615 20.8025C12.2274 20.8382 12.2993 20.8556 12.3707 20.8556C12.4845 20.8556 12.597 20.8114 12.6816 20.7269L15.5606 17.8479V29.8235ZM16 16.2874L6.08557 10.9282L16.0003 5.56891L25.9148 10.9281L16 16.2874ZM26.6338 16.1199C26.6314 16.1211 26.6291 16.1224 26.6267 16.1237L24.4374 17.3104C24.3337 17.3661 24.2587 17.4592 24.2253 17.5717C24.1919 17.6843 24.2042 17.8032 24.2598 17.9063C24.3372 18.0481 24.4854 18.136 24.6465 18.136C24.7192 18.136 24.7919 18.1178 24.8557 18.0833L26.4001 17.2462V24.4394L16.4395 29.8236V17.8477L19.3187 20.7269C19.402 20.8101 19.5121 20.8558 19.6293 20.8558C19.7019 20.8558 19.774 20.8371 19.8385 20.8025L23.3107 18.9205C23.4138 18.8649 23.4888 18.7717 23.5222 18.6592C23.5556 18.5467 23.5433 18.4284 23.4876 18.3252C23.4103 18.1829 23.262 18.095 23.1003 18.095C23.0282 18.095 22.9556 18.1131 22.8917 18.1483L19.7084 19.8732L16.7278 16.8932L26.7594 11.4704L29.7148 14.4499L26.6338 16.1199Z" fill="black" stroke="#333333" stroke-width="0.2"/>
</svg>
