<svg width="24" height="24" viewBox="0 0 24 24" fill="none" xmlns="http://www.w3.org/2000/svg">
<path d="M20.3707 7.95483C19.1563 6.89409 17.913 6.04692 16.6753 5.43675C15.099 4.65966 13.526 4.26562 12 4.26562C10.474 4.26562 8.90105 4.65966 7.32473 5.4367C6.087 6.04688 4.84369 6.89409 3.62934 7.95478C2.31403 9.10373 1.09936 10.4363 0 12C1.09509 13.5576 2.30813 14.8911 3.62934 16.0452C4.84369 17.1059 6.087 17.9531 7.32473 18.5632C8.90105 19.3403 10.474 19.7344 12 19.7344C13.526 19.7344 15.099 19.3403 16.6753 18.5633C17.913 17.9531 19.1563 17.1059 20.3707 16.0452C21.686 14.8963 22.9007 13.5638 24 12C22.9049 10.4424 21.6919 9.10889 20.3707 7.95483ZM12 18.3281C9.01847 18.3281 6.31838 16.522 4.57828 15.0068C3.20963 13.8151 2.20078 12.6087 1.72444 12.0002C2.86453 10.5462 7.05619 5.67188 12 5.67188C14.9815 5.67188 17.6816 7.47802 19.4217 8.99316C20.7902 10.1848 21.7991 11.3912 22.2756 11.9998C21.1355 13.4538 16.9438 18.3281 12 18.3281Z" fill="#333333"/>
<path d="M12 7.07812C9.28608 7.07812 7.07812 9.28608 7.07812 12C7.07812 14.7139 9.28608 16.9219 12 16.9219C14.7139 16.9219 16.9219 14.7139 16.9219 12C16.9219 9.28608 14.7139 7.07812 12 7.07812ZM12 15.5156C10.0615 15.5156 8.48438 13.9385 8.48438 12C8.48438 10.0615 10.0615 8.48438 12 8.48438C13.9385 8.48438 15.5156 10.0615 15.5156 12C15.5156 13.9385 13.9385 15.5156 12 15.5156Z" fill="#333333"/>
<path d="M12 9.89062C10.8369 9.89062 9.89062 10.8369 9.89062 12C9.89062 13.1631 10.8369 14.1094 12 14.1094C13.1631 14.1094 14.1094 13.1631 14.1094 12C14.1094 10.8369 13.1631 9.89062 12 9.89062ZM12 12.7031C11.6123 12.7031 11.2969 12.3877 11.2969 12C11.2969 11.6123 11.6123 11.2969 12 11.2969C12.3877 11.2969 12.7031 11.6123 12.7031 12C12.7031 12.3877 12.3877 12.7031 12 12.7031Z" fill="#333333"/>
</svg>
