<?xml version="1.0" encoding="UTF-8"?>
<svg xmlns="http://www.w3.org/2000/svg" xmlns:xlink="http://www.w3.org/1999/xlink" width="156px" height="46px" viewBox="0 0 155 46" version="1.1">
<defs>
<linearGradient id="linear0" gradientUnits="userSpaceOnUse" x1="70.25" y1="22.15" x2="70.25" y2="146.720001" gradientTransform="matrix(0.300054,0,0,0.30032,0.131021,0)">
<stop offset="0" style="stop-color:rgb(94.901961%,15.294118%,19.215686%);stop-opacity:1;"/>
<stop offset="1" style="stop-color:rgb(81.568627%,0.784314%,1.568627%);stop-opacity:1;"/>
</linearGradient>
<linearGradient id="linear1" gradientUnits="userSpaceOnUse" x1="30.93" y1="160.880005" x2="143.880005" y2="43.919998" gradientTransform="matrix(0.300054,0,0,0.30032,0.131021,0)">
<stop offset="0" style="stop-color:rgb(18.431373%,18.431373%,18.431373%);stop-opacity:1;"/>
<stop offset="1" style="stop-color:rgb(52.156863%,52.54902%,50.588235%);stop-opacity:1;"/>
</linearGradient>
<linearGradient id="linear2" gradientUnits="userSpaceOnUse" x1="126.389999" y1="33.700001" x2="42.310001" y2="200.360001" gradientTransform="matrix(0.300054,0,0,0.30032,0.131021,0)">
<stop offset="0" style="stop-color:rgb(18.431373%,18.431373%,18.431373%);stop-opacity:1;"/>
<stop offset="1" style="stop-color:rgb(52.156863%,52.54902%,50.588235%);stop-opacity:1;"/>
</linearGradient>
<linearGradient id="linear3" gradientUnits="userSpaceOnUse" x1="100.269997" y1="76.25" x2="12.17" y2="155.309998" gradientTransform="matrix(0.300054,0,0,0.30032,0.131021,0)">
<stop offset="0" style="stop-color:rgb(18.431373%,18.431373%,18.431373%);stop-opacity:1;"/>
<stop offset="1" style="stop-color:rgb(52.156863%,52.54902%,50.588235%);stop-opacity:1;"/>
</linearGradient>
<linearGradient id="linear4" gradientUnits="userSpaceOnUse" x1="91.510002" y1="41.889999" x2="62.150002" y2="203.279999" gradientTransform="matrix(0.300054,0,0,0.30032,0.131021,0)">
<stop offset="0" style="stop-color:rgb(100%,98.823529%,97.254902%);stop-opacity:1;"/>
<stop offset="1" style="stop-color:rgb(36.078431%,35.686275%,34.117647%);stop-opacity:1;"/>
</linearGradient>
</defs>
<g id="surface1">
<path style=" stroke:none;fill-rule:nonzero;fill:rgb(90.980393%,9.411765%,9.411765%);fill-opacity:1;" d="M 45.957031 31.824219 L 154.867188 31.824219 L 154.867188 33.652344 L 45.957031 33.652344 Z M 45.957031 31.824219 "/>
<path style=" stroke:none;fill-rule:nonzero;fill:rgb(81.960785%,81.960785%,81.960785%);fill-opacity:1;" d="M 49.867188 37.347656 L 49.867188 38.105469 L 46.867188 38.105469 L 46.867188 39.980469 C 47.152344 39.945312 47.4375 39.925781 47.726562 39.925781 C 48.359375 39.902344 48.984375 40.066406 49.527344 40.390625 C 50.109375 40.757812 50.453125 41.410156 50.425781 42.097656 C 50.445312 42.65625 50.234375 43.199219 49.847656 43.601562 C 49.277344 44.160156 48.347656 44.375 47.386719 44.375 C 46.917969 44.378906 46.445312 44.351562 45.980469 44.292969 L 45.980469 37.347656 Z M 46.867188 43.628906 C 47.117188 43.671875 47.371094 43.6875 47.625 43.679688 C 48.164062 43.703125 48.691406 43.511719 49.089844 43.144531 C 49.347656 42.867188 49.484375 42.5 49.472656 42.121094 C 49.492188 41.667969 49.277344 41.238281 48.90625 40.980469 C 48.507812 40.734375 48.046875 40.613281 47.582031 40.628906 C 47.375 40.628906 47.09375 40.648438 46.867188 40.667969 Z M 46.867188 43.628906 "/>
<path style=" stroke:none;fill-rule:nonzero;fill:rgb(81.960785%,81.960785%,81.960785%);fill-opacity:1;" d="M 57.246094 41.054688 L 54.546875 41.054688 L 54.546875 43.566406 L 57.5625 43.566406 L 57.5625 44.324219 L 53.664062 44.324219 L 53.664062 37.347656 L 57.425781 37.347656 L 57.425781 38.105469 L 54.5625 38.105469 L 54.5625 40.308594 L 57.261719 40.308594 Z M 57.246094 41.054688 "/>
<path style=" stroke:none;fill-rule:nonzero;fill:rgb(81.960785%,81.960785%,81.960785%);fill-opacity:1;" d="M 62.167969 38.113281 L 60.046875 38.113281 L 60.046875 37.347656 L 65.207031 37.347656 L 65.207031 38.113281 L 63.078125 38.113281 L 63.078125 44.324219 L 62.175781 44.324219 Z M 62.167969 38.113281 "/>
<path style=" stroke:none;fill-rule:nonzero;fill:rgb(81.960785%,81.960785%,81.960785%);fill-opacity:1;" d="M 73.644531 40.761719 C 73.644531 43.164062 72.1875 44.4375 70.40625 44.4375 C 68.566406 44.4375 67.273438 43.007812 67.273438 40.898438 C 67.273438 38.683594 68.648438 37.234375 70.511719 37.234375 C 72.375 37.234375 73.644531 38.691406 73.644531 40.761719 Z M 68.242188 40.875 C 68.242188 42.378906 69.046875 43.703125 70.464844 43.703125 C 71.878906 43.703125 72.699219 42.386719 72.699219 40.804688 C 72.699219 39.421875 71.972656 37.96875 70.476562 37.96875 C 68.976562 37.96875 68.242188 39.34375 68.242188 40.875 Z M 68.242188 40.875 "/>
<path style=" stroke:none;fill-rule:nonzero;fill:rgb(81.960785%,81.960785%,81.960785%);fill-opacity:1;" d="M 77.773438 37.347656 L 77.773438 40.265625 L 81.144531 40.265625 L 81.144531 37.347656 L 82.046875 37.347656 L 82.046875 44.324219 L 81.144531 44.324219 L 81.144531 41.054688 L 77.773438 41.054688 L 77.773438 44.324219 L 76.871094 44.324219 L 76.871094 37.347656 Z M 77.773438 37.347656 "/>
<path style=" stroke:none;fill-rule:nonzero;fill:rgb(81.960785%,81.960785%,81.960785%);fill-opacity:1;" d="M 86.578125 37.347656 L 86.578125 40.265625 L 89.949219 40.265625 L 89.949219 37.347656 L 90.847656 37.347656 L 90.847656 44.324219 L 89.949219 44.324219 L 89.949219 41.054688 L 86.578125 41.054688 L 86.578125 44.324219 L 85.679688 44.324219 L 85.679688 37.347656 Z M 86.578125 37.347656 "/>
<path style=" stroke:none;fill-rule:nonzero;fill:rgb(81.960785%,81.960785%,81.960785%);fill-opacity:1;" d="M 95.386719 37.347656 L 95.386719 39.957031 C 95.660156 39.921875 95.933594 39.90625 96.210938 39.902344 C 97.648438 39.902344 98.910156 40.539062 98.910156 42.085938 C 98.929688 42.632812 98.738281 43.164062 98.375 43.566406 C 97.804688 44.167969 96.835938 44.382812 95.894531 44.382812 C 95.425781 44.386719 94.960938 44.363281 94.5 44.304688 L 94.5 37.347656 Z M 95.386719 43.628906 C 95.625 43.671875 95.867188 43.691406 96.109375 43.679688 C 97.101562 43.679688 97.960938 43.175781 97.960938 42.121094 C 97.960938 41.066406 97.03125 40.617188 96.097656 40.617188 C 95.859375 40.617188 95.621094 40.632812 95.386719 40.667969 Z M 100.585938 37.347656 L 100.585938 44.324219 L 99.6875 44.324219 L 99.6875 37.347656 Z M 100.585938 37.347656 "/>
<path style=" stroke:none;fill-rule:nonzero;fill:rgb(81.960785%,81.960785%,81.960785%);fill-opacity:1;" d="M 105.109375 37.347656 L 105.109375 40.289062 C 105.109375 41.394531 105.089844 42.304688 105.027344 43.238281 L 105.046875 43.238281 C 105.398438 42.511719 105.835938 41.757812 106.339844 40.929688 L 108.59375 37.328125 L 109.496094 37.328125 L 109.496094 44.304688 L 108.644531 44.304688 L 108.644531 41.355469 C 108.644531 40.226562 108.644531 39.398438 108.730469 38.519531 L 108.699219 38.519531 C 108.316406 39.328125 107.886719 40.113281 107.40625 40.867188 L 105.226562 44.335938 L 104.25 44.335938 L 104.25 37.347656 Z M 106.25 35.890625 C 106.289062 36.210938 106.390625 36.53125 106.878906 36.53125 C 107.363281 36.53125 107.476562 36.230469 107.507812 35.890625 L 108.203125 35.890625 C 108.152344 36.574219 107.738281 36.996094 106.855469 36.996094 C 105.976562 36.996094 105.605469 36.574219 105.554688 35.890625 Z M 106.25 35.890625 "/>
<path style=" stroke:none;fill-rule:nonzero;fill:rgb(81.960785%,81.960785%,81.960785%);fill-opacity:1;" d="M 117.121094 37.761719 C 117.667969 37.410156 118.304688 37.230469 118.953125 37.238281 C 120.152344 37.238281 121 37.875 121 38.949219 C 120.984375 39.785156 120.382812 40.492188 119.5625 40.644531 L 119.5625 40.667969 C 120.542969 40.769531 121.257812 41.410156 121.257812 42.414062 C 121.257812 43.863281 120.003906 44.445312 118.738281 44.445312 C 118.097656 44.457031 117.46875 44.300781 116.914062 43.988281 L 117.152344 43.285156 C 117.632812 43.550781 118.167969 43.695312 118.714844 43.707031 C 119.746094 43.707031 120.316406 43.148438 120.316406 42.382812 C 120.316406 41.339844 119.3125 41.039062 118.425781 41.039062 L 118.011719 41.039062 L 118.011719 40.355469 L 118.425781 40.355469 C 119.34375 40.355469 120.058594 39.785156 120.058594 39.070312 C 120.058594 38.355469 119.5625 37.976562 118.808594 37.976562 C 118.292969 37.992188 117.792969 38.152344 117.359375 38.433594 Z M 117.121094 37.761719 "/>
<path style=" stroke:none;fill-rule:nonzero;fill:rgb(81.960785%,81.960785%,81.960785%);fill-opacity:1;" d="M 125.667969 42.128906 L 124.953125 44.324219 L 124.023438 44.324219 L 126.390625 37.347656 L 127.476562 37.347656 L 129.851562 44.324219 L 128.894531 44.324219 L 128.148438 42.128906 Z M 127.953125 41.425781 L 127.273438 39.421875 C 127.117188 38.964844 127.011719 38.550781 126.910156 38.148438 L 126.890625 38.148438 C 126.785156 38.558594 126.671875 38.984375 126.539062 39.40625 L 125.855469 41.425781 Z M 127.953125 41.425781 "/>
<path style=" stroke:none;fill-rule:nonzero;fill:rgb(81.960785%,81.960785%,81.960785%);fill-opacity:1;" d="M 132.933594 37.441406 C 133.476562 37.34375 134.027344 37.292969 134.578125 37.296875 C 135.480469 37.296875 136.054688 37.453125 136.492188 37.804688 C 136.875 38.09375 137.089844 38.554688 137.070312 39.035156 C 137.046875 39.746094 136.570312 40.363281 135.890625 40.566406 L 135.890625 40.589844 C 136.722656 40.757812 137.320312 41.488281 137.328125 42.335938 C 137.332031 42.867188 137.117188 43.371094 136.726562 43.734375 C 136.242188 44.175781 135.457031 44.382812 134.328125 44.382812 C 133.859375 44.386719 133.394531 44.363281 132.933594 44.304688 Z M 133.835938 40.296875 L 134.652344 40.296875 C 135.601562 40.296875 136.152344 39.800781 136.152344 39.128906 C 136.152344 38.3125 135.53125 37.992188 134.621094 37.992188 C 134.355469 37.984375 134.089844 38.003906 133.828125 38.054688 Z M 133.835938 43.640625 C 134.085938 43.675781 134.335938 43.6875 134.589844 43.679688 C 135.519531 43.679688 136.386719 43.339844 136.386719 42.328125 C 136.386719 41.375 135.574219 40.980469 134.589844 40.980469 L 133.835938 40.980469 Z M 133.835938 43.640625 "/>
<path style=" stroke:none;fill-rule:nonzero;fill:rgb(81.960785%,81.960785%,81.960785%);fill-opacity:1;" d="M 146.476562 40.761719 C 146.476562 43.164062 145.019531 44.4375 143.238281 44.4375 C 141.398438 44.4375 140.109375 43.007812 140.109375 40.898438 C 140.109375 38.683594 141.484375 37.234375 143.34375 37.234375 C 145.203125 37.234375 146.476562 38.691406 146.476562 40.761719 Z M 141.074219 40.875 C 141.074219 42.378906 141.882812 43.703125 143.300781 43.703125 C 144.714844 43.703125 145.53125 42.386719 145.53125 40.804688 C 145.53125 39.421875 144.808594 37.96875 143.308594 37.96875 C 141.808594 37.96875 141.070312 39.34375 141.070312 40.875 Z M 141.074219 40.875 "/>
<path style=" stroke:none;fill-rule:nonzero;fill:rgb(81.960785%,81.960785%,81.960785%);fill-opacity:1;" d="M 154.261719 37.347656 L 154.261719 43.589844 L 154.859375 43.609375 L 154.796875 46.011719 L 154.09375 46.011719 L 154.03125 44.335938 L 149.648438 44.335938 L 149.585938 46.011719 L 148.882812 46.011719 L 148.820312 43.609375 L 149.347656 43.589844 C 149.625 43.101562 149.855469 42.589844 150.027344 42.058594 C 150.28125 41.097656 150.394531 40.109375 150.363281 39.121094 L 150.363281 37.347656 Z M 151.199219 39.40625 C 151.226562 40.371094 151.105469 41.328125 150.847656 42.253906 C 150.703125 42.714844 150.511719 43.160156 150.277344 43.578125 L 153.359375 43.578125 L 153.359375 38.09375 L 151.199219 38.09375 Z M 151.199219 39.40625 "/>
<path style=" stroke:none;fill-rule:nonzero;fill:url(#linear0);" d="M 42.289062 44.324219 L 36.65625 44.324219 L 21.210938 11.839844 L 5.761719 44.324219 L 0.132812 44.324219 L 21.210938 0 Z M 42.289062 44.324219 "/>
<path style=" stroke:none;fill-rule:nonzero;fill:url(#linear1);" d="M 36.65625 44.324219 L 36.179688 44.324219 L 21.210938 12.84375 L 8.214844 40.171875 L 6.238281 44.324219 L 5.761719 44.324219 L 21.210938 11.839844 Z M 36.65625 44.324219 "/>
<path style=" stroke:none;fill-rule:nonzero;fill:url(#linear2);" d="M 34.378906 44.324219 L 33.867188 44.324219 L 26.464844 28.761719 L 21.210938 17.699219 L 14.472656 31.867188 L 18.050781 28.761719 L 19.214844 28.761719 L 13.65625 33.585938 L 12.789062 34.339844 L 13.605469 32.617188 L 21.210938 16.632812 Z M 34.378906 44.324219 "/>
<path style=" stroke:none;fill-rule:nonzero;fill:url(#linear3);" d="M 26.464844 28.761719 L 8.550781 44.324219 L 6.238281 44.324219 L 8.214844 40.171875 L 10.523438 40.171875 L 10.527344 40.167969 L 23.664062 28.761719 Z M 26.464844 28.761719 "/>
<path style=" stroke:none;fill-rule:nonzero;fill:url(#linear4);" d="M 13.605469 32.617188 L 12.789062 34.339844 L 13.65625 33.585938 L 19.214844 28.761719 L 23.664062 28.761719 L 10.527344 40.167969 L 10.523438 40.171875 L 8.214844 40.171875 L 21.210938 12.84375 L 36.179688 44.324219 L 34.378906 44.324219 L 21.210938 16.632812 Z M 13.605469 32.617188 "/>
<path style=" stroke:none;fill-rule:nonzero;fill:rgb(81.960785%,81.960785%,81.960785%);fill-opacity:1;" d="M 45.957031 26.519531 L 57.359375 2.515625 L 68.761719 26.519531 L 63.742188 26.519531 L 61.941406 22.738281 L 52.777344 22.738281 L 50.976562 26.519531 Z M 60.28125 19.21875 L 58.871094 16.253906 C 58.550781 15.585938 58.050781 14.417969 57.371094 12.746094 C 57.199219 13.105469 56.953125 13.675781 56.640625 14.460938 C 56.328125 15.242188 56.074219 15.828125 55.886719 16.21875 L 54.441406 19.21875 Z M 60.28125 19.21875 "/>
<path style=" stroke:none;fill-rule:nonzero;fill:rgb(81.960785%,81.960785%,81.960785%);fill-opacity:1;" d="M 81.078125 20.929688 L 81.078125 26.519531 L 76.496094 26.519531 L 76.496094 3.515625 L 85.230469 3.515625 C 87.433594 3.515625 89.304688 3.984375 90.847656 4.929688 C 92.214844 5.746094 93.304688 6.960938 93.972656 8.410156 C 94.472656 9.511719 94.726562 10.707031 94.71875 11.917969 L 94.71875 12.011719 C 94.699219 13.238281 94.429688 14.449219 93.925781 15.566406 C 93.03125 17.644531 91.355469 19.292969 89.261719 20.152344 C 88.042969 20.609375 86.757812 20.871094 85.453125 20.929688 Z M 81.078125 8.085938 L 81.078125 16.359375 L 85.230469 16.359375 C 87.433594 16.359375 88.933594 15.46875 89.734375 13.691406 C 89.988281 13.148438 90.128906 12.558594 90.148438 11.960938 L 90.148438 11.878906 C 90.152344 11.347656 90.039062 10.824219 89.8125 10.339844 C 89.125 8.851562 87.601562 8.101562 85.246094 8.085938 Z M 81.078125 8.085938 "/>
<path style=" stroke:none;fill-rule:nonzero;fill:rgb(81.960785%,81.960785%,81.960785%);fill-opacity:1;" d="M 120.78125 26.519531 L 120.78125 12.613281 L 103.078125 27.21875 L 103.078125 3.492188 L 107.675781 3.492188 L 107.675781 17.484375 L 125.378906 2.878906 L 125.378906 26.519531 Z M 120.78125 26.519531 "/>
<path style=" stroke:none;fill-rule:nonzero;fill:rgb(81.960785%,81.960785%,81.960785%);fill-opacity:1;" d="M 149.109375 8.109375 C 148.242188 7.769531 147.316406 7.597656 146.382812 7.601562 C 144.417969 7.574219 142.527344 8.355469 141.15625 9.769531 C 139.734375 11.140625 138.945312 13.039062 138.976562 15.015625 C 138.949219 16.992188 139.738281 18.890625 141.15625 20.261719 C 142.527344 21.679688 144.421875 22.464844 146.390625 22.4375 C 148.273438 22.429688 150.085938 21.71875 151.464844 20.4375 L 154.59375 23.789062 C 153.5 24.824219 152.21875 25.640625 150.816406 26.191406 C 149.40625 26.75 147.902344 27.035156 146.382812 27.027344 C 143.191406 27.078125 140.121094 25.800781 137.898438 23.507812 C 135.605469 21.28125 134.332031 18.210938 134.375 15.015625 C 134.328125 11.820312 135.601562 8.746094 137.898438 6.523438 C 140.121094 4.226562 143.191406 2.953125 146.382812 3.003906 C 147.898438 3 149.398438 3.285156 150.804688 3.84375 C 152.207031 4.394531 153.492188 5.210938 154.582031 6.246094 L 151.457031 9.609375 C 150.773438 8.96875 149.980469 8.457031 149.109375 8.109375 Z M 149.109375 8.109375 "/>
</g>
</svg>
