<svg xmlns="http://www.w3.org/2000/svg" xmlns:xlink="http://www.w3.org/1999/xlink" viewBox="0 0 515.7 153.17"><defs><style>.cls-1{fill:#e81818;}.cls-2{fill:#d1d1d1;}.cls-3{fill:url(#Безымянный_градиент_16);}.cls-4{fill:url(#Безымянный_градиент_8);}.cls-5{fill:url(#Безымянный_градиент_8-2);}.cls-6{fill:url(#Безымянный_градиент_8-3);}.cls-7{fill:url(#Безымянный_градиент_10);}</style><linearGradient id="Безымянный_градиент_16" x1="70.25" y1="22.15" x2="70.25" y2="146.72" gradientUnits="userSpaceOnUse"><stop offset="0" stop-color="#f22731"/><stop offset="1" stop-color="#d00204"/></linearGradient><linearGradient id="Безымянный_градиент_8" x1="30.93" y1="160.88" x2="143.88" y2="43.92" gradientUnits="userSpaceOnUse"><stop offset="0" stop-color="#2f2f2f"/><stop offset="1" stop-color="#858681"/></linearGradient><linearGradient id="Безымянный_градиент_8-2" x1="126.39" y1="33.7" x2="42.31" y2="200.36" xlink:href="#Безымянный_градиент_8"/><linearGradient id="Безымянный_градиент_8-3" x1="100.27" y1="76.25" x2="12.17" y2="155.31" xlink:href="#Безымянный_градиент_8"/><linearGradient id="Безымянный_градиент_10" x1="91.51" y1="41.89" x2="62.15" y2="203.28" gradientUnits="userSpaceOnUse"><stop offset="0" stop-color="#fffcf8"/><stop offset="1" stop-color="#5c5b57"/></linearGradient></defs><g id="Слой_2" data-name="Слой 2"><g id="Слой_1-2" data-name="Слой 1"><rect class="cls-1" x="152.73" y="105.97" width="362.96" height="6.08"/><path class="cls-2" d="M165.76,124.36v2.52h-10v6.24a24.4,24.4,0,0,1,2.86-.18,11,11,0,0,1,6,1.55,6.41,6.41,0,0,1,3,5.69,6.86,6.86,0,0,1-1.93,5c-1.9,1.86-5,2.58-8.2,2.58a35.18,35.18,0,0,1-4.69-.27V124.36Zm-10,20.92a12.93,12.93,0,0,0,2.52.17,6.83,6.83,0,0,0,4.89-1.79,4.79,4.79,0,0,0,1.27-3.41,4.36,4.36,0,0,0-1.89-3.79,7.75,7.75,0,0,0-4.41-1.17c-.69,0-1.62.06-2.38.13Z"/><path class="cls-2" d="M190.35,136.7h-9v8.37h10.06v2.52h-13V124.36h12.54v2.52h-9.55v7.34h9Z"/><path class="cls-2" d="M206.75,126.91h-7.07v-2.55h17.2v2.55h-7.1v20.68h-3Z"/><path class="cls-2" d="M245,135.73c0,8-4.86,12.24-10.79,12.24-6.13,0-10.44-4.76-10.44-11.79,0-7.37,4.58-12.2,10.79-12.2S245,128.84,245,135.73Zm-18,.38c0,5,2.68,9.41,7.4,9.41s7.45-4.38,7.45-9.65c0-4.61-2.42-9.44-7.41-9.44S227,131,227,136.11Z"/><path class="cls-2" d="M258.76,124.36v9.72H270v-9.72h3v23.23h-3V136.7H258.76v10.89h-3V124.36Z"/><path class="cls-2" d="M288.11,124.36v9.72h11.23v-9.72h3v23.23h-3V136.7H288.11v10.89h-3V124.36Z"/><path class="cls-2" d="M317.46,124.36v8.69a22.16,22.16,0,0,1,2.75-.18c4.79,0,9,2.11,9,7.27a7,7,0,0,1-1.79,4.93c-1.9,2-5.13,2.72-8.27,2.72a34.83,34.83,0,0,1-4.65-.27V124.36Zm0,20.92a11.35,11.35,0,0,0,2.41.17c3.31,0,6.17-1.69,6.17-5.2s-3.1-5-6.21-5a14.75,14.75,0,0,0-2.37.17Zm17.33-20.92v23.23h-3V124.36Z"/><path class="cls-2" d="M349.87,124.36v9.79c0,3.69-.07,6.72-.28,9.82l.07,0c1.17-2.41,2.62-4.92,4.31-7.68l7.51-12h3v23.23h-2.83V137.7c0-3.76,0-6.51.28-9.44l-.1,0a71.7,71.7,0,0,1-4.31,7.82l-7.27,11.55H347V124.36Zm3.79-4.85c.14,1.06.48,2.13,2.1,2.13s2-1,2.1-2.13h2.31c-.17,2.27-1.55,3.68-4.48,3.68s-4.17-1.41-4.34-3.68Z"/><path class="cls-2" d="M389.9,125.74A11,11,0,0,1,396,124c4,0,6.82,2.11,6.82,5.69a5.85,5.85,0,0,1-4.79,5.65v.07c3.27.34,5.65,2.48,5.65,5.82,0,4.83-4.17,6.76-8.4,6.76a11.83,11.83,0,0,1-6.07-1.52l.79-2.34a11.32,11.32,0,0,0,5.21,1.41c3.44,0,5.34-1.86,5.34-4.41,0-3.48-3.35-4.48-6.31-4.48h-1.38v-2.27h1.38c3.07,0,5.45-1.9,5.45-4.28s-1.66-3.65-4.17-3.65a9.46,9.46,0,0,0-4.83,1.52Z"/><path class="cls-2" d="M418.38,140.28,416,147.59h-3.1l7.89-23.23h3.62l7.92,23.23h-3.2l-2.48-7.31Zm7.62-2.34-2.27-6.68c-.52-1.52-.87-2.9-1.21-4.24h-.07c-.34,1.37-.72,2.79-1.17,4.2L419,137.94Z"/><path class="cls-2" d="M442.6,124.67a29.59,29.59,0,0,1,5.48-.48c3,0,4.92.52,6.37,1.69a4.86,4.86,0,0,1,1.93,4.1,5.52,5.52,0,0,1-3.93,5.1v.07a6,6,0,0,1,4.79,5.82,6.25,6.25,0,0,1-2,4.65c-1.62,1.48-4.24,2.17-8,2.17a34.83,34.83,0,0,1-4.65-.27Zm3,9.51h2.72c3.17,0,5-1.65,5-3.89,0-2.72-2.07-3.79-5.1-3.79a12.25,12.25,0,0,0-2.65.21Zm0,11.13a15.07,15.07,0,0,0,2.51.14c3.1,0,6-1.14,6-4.51,0-3.17-2.72-4.48-6-4.48H445.6Z"/><path class="cls-2" d="M487.73,135.73c0,8-4.86,12.24-10.79,12.24-6.13,0-10.43-4.76-10.43-11.79,0-7.37,4.58-12.2,10.78-12.2S487.73,128.84,487.73,135.73Zm-18,.38c0,5,2.69,9.41,7.41,9.41s7.44-4.38,7.44-9.65c0-4.61-2.41-9.44-7.41-9.44S469.71,131,469.71,136.11Z"/><path class="cls-2" d="M513.67,124.36v20.78l2,.07-.21,8h-2.34l-.21-5.58H498.3l-.21,5.58h-2.34l-.21-8,1.76-.07a27.35,27.35,0,0,0,2.27-5.1,34.19,34.19,0,0,0,1.11-9.78v-5.9Zm-10.2,6.86a32,32,0,0,1-1.17,9.48,23.31,23.31,0,0,1-1.9,4.41h10.27V126.84h-7.2Z"/><polygon class="cls-3" points="140.5 147.59 121.73 147.59 70.25 39.43 18.77 147.59 0 147.59 70.25 0 140.5 147.59"/><polygon class="cls-4" points="121.73 147.59 120.14 147.59 70.25 42.77 26.94 133.77 20.36 147.59 18.77 147.59 70.25 39.43 121.73 147.59"/><polygon class="cls-5" points="114.14 147.59 112.44 147.59 87.77 95.77 70.25 58.94 47.8 106.11 59.72 95.77 63.6 95.77 45.07 111.84 42.18 114.35 44.91 108.61 44.91 108.61 70.25 55.38 114.14 147.59"/><polygon class="cls-6" points="87.77 95.77 28.06 147.59 20.36 147.59 26.94 133.77 34.63 133.77 34.65 133.75 78.43 95.77 87.77 95.77"/><polygon class="cls-7" points="44.91 108.61 42.18 114.35 45.07 111.84 63.6 95.77 78.43 95.77 34.65 133.75 34.63 133.77 26.94 133.77 70.25 42.77 120.14 147.59 114.14 147.59 70.25 55.38 44.91 108.61 44.91 108.61"/><path class="cls-2" d="M152.73,88.3l38-79.93,38,79.93H212l-6-12.58H175.46l-6,12.58ZM200.46,64l-4.7-9.88q-1.59-3.33-5-11.68-.86,1.8-2.43,5.71T185.82,54L181,64Z"/><path class="cls-2" d="M269.77,69.69V88.3H254.5V11.7h29.12v0q11,0,18.71,4.71A26.44,26.44,0,0,1,312.75,28a27.88,27.88,0,0,1,2.48,11.68V40a29.59,29.59,0,0,1-2.64,11.83A28.81,28.81,0,0,1,297.05,67.1a41.56,41.56,0,0,1-12.69,2.59Zm0-42.76V54.47h13.85q11,0,15-8.88A14.78,14.78,0,0,0,300,39.83v-.27a12,12,0,0,0-1.11-5.13q-3.45-7.44-15.23-7.5Z"/><path class="cls-2" d="M402.09,88.3V42l-59,48.63v-79h15.33V58.22l59-48.63V88.3Z"/><path class="cls-2" d="M496.51,27a24.74,24.74,0,0,0-9.09-1.69A23.79,23.79,0,0,0,470,32.53,23.76,23.76,0,0,0,462.73,50,23.83,23.83,0,0,0,470,67.47a23.79,23.79,0,0,0,17.45,7.24,25,25,0,0,0,16.91-6.66l10.42,11.16a39.08,39.08,0,0,1-12.59,8A39.65,39.65,0,0,1,487.42,90a38.55,38.55,0,0,1-28.28-11.73A38.6,38.6,0,0,1,447.4,50a38.55,38.55,0,0,1,11.74-28.28A38.55,38.55,0,0,1,487.42,10a39.65,39.65,0,0,1,14.74,2.8,38.94,38.94,0,0,1,12.59,8L504.33,32A25.12,25.12,0,0,0,496.51,27Z"/></g></g></svg>