<svg id="Слой_1" data-name="Слой 1" xmlns="http://www.w3.org/2000/svg" viewBox="0 0 824.97 294.44"><defs><style>.cls-1{fill:#ee433f;}.cls-2{fill:#676767;}.cls-3{fill:#d83d38;}.cls-4{fill:#4d4e4e;}</style></defs><title>лого</title><path class="cls-1" d="M212.61,153.46l-27.84,11.2V77.26h0c-33.3,0-61.39,20.86-70.25,49.4-8.85-28.54-36.94-49.4-70.24-49.4h0v87.4l-27.84-11.2V192l27.84,11.21v.1l15.86,6.29,21.74,8.75v-71l32.64,12.45,32.65-12.45v71l21.74-8.75,15.86-6.29v-.1L212.61,192Z"/><polygon class="cls-2" points="114.52 249.42 0 203.07 0 248.09 32.51 261.17 32.51 261.3 51.02 268.63 114.52 294.43 178.02 268.63 196.53 261.3 196.53 261.17 229.05 248.09 229.05 203.07 114.52 249.42"/><path class="cls-3" d="M114.53,126.66v33.2L81.88,147.4v71L60.14,209.6l-15.86-6.28v-.1L16.44,192V153.45l27.84,11.22V77.25C77.58,77.25,105.66,98.12,114.53,126.66Z"/><polygon class="cls-4" points="114.53 249.42 114.53 294.44 51.03 268.63 32.52 261.3 32.52 261.17 0 248.09 0 203.08 114.53 249.42"/><polygon class="cls-1" points="130.71 39.3 134.53 61.57 114.53 51.05 94.52 61.57 98.34 39.3 82.16 23.52 104.52 20.27 114.53 0 124.53 20.27 146.89 23.52 130.71 39.3"/><path class="cls-1" d="M331.55,148.16H321.48V116.61l-20.14,31.55L281.2,116.61v31.55H271.13V97.81H281.2l20.14,31.55,20.14-31.55h10.07Z"/><path class="cls-1" d="M386.94,133.89q0,15.11-15.11,15.11H351.69q-15.1,0-15.1-15.11V112.08q0-15.1,15.1-15.11h20.14q15.1,0,15.11,15.11Zm-10.07,0V112.08q0-5-5-5H351.69q-5,0-5,5v21.81q0,5,5,5h20.14Q376.87,138.93,376.87,133.89Z"/><path class="cls-1" d="M442.32,148.16H407.08q-15.1,0-15.11-15.1V112.92q0-15.11,15.11-15.11h35.24v10.07H407.08q-5,0-5,5v20.14q0,5,5,5h35.24Z"/><path class="cls-1" d="M497.7,148.16H484.87L468.75,128H457.43v20.14H447.35V97.81h10.08V118h11.32l16.12-20.14H497.7L477.57,123Z"/><path class="cls-1" d="M550.57,133.89q0,15.11-15.1,15.11H515.33q-15.11,0-15.11-15.11V112.08q0-15.1,15.11-15.11h20.14q15.1,0,15.1,15.11Zm-10.07,0V112.08q0-5-5-5H515.33q-5,0-5,5v21.81q0,5,5,5h20.14Q540.5,138.93,540.5,133.89Z"/><path class="cls-1" d="M606,133.06q0,15.1-15.1,15.1H555.6V97.81h35.25q15,0,15.1,15,0,7-3.19,10.07Q606,126.17,606,133.06Zm-10.07-20.14c0-3.36-1.67-5-5-5H565.67V118h25.18C594.21,118,595.88,116.27,595.88,112.92Zm0,20.14c0-3.36-1.67-5-5-5H565.67v10.07h25.18C594.21,138.09,595.88,136.41,595.88,133.06Z"/><path class="cls-1" d="M661.34,148.16H626.09q-15.11,0-15.1-15.1V112.92q0-15.11,15.1-15.11h35.25v10.07H626.09q-5,0-5,5v20.14q0,5,5,5h35.25Z"/><path class="cls-1" d="M716.72,148.16H703.88L687.77,128H676.44v20.14H666.37V97.81h10.07V118h11.33l16.11-20.14h12.84L696.58,123Z"/><path class="cls-1" d="M769.59,148.16H759.52V113.25l-30.21,34.91H719.24V97.81h10.07v34.91l30.21-34.91h10.07Z"/><path class="cls-1" d="M825,148.16H814.9V113.25l-30.21,34.91H774.62V97.81h10.07v34.91L814.9,97.81H825ZM804.83,82.71H794.76V92.78h10.07Z"/><path class="cls-1" d="M321.48,207.8q0,15.1-15.1,15.1H271.13V172.55h45.32v10.07H281.2v10.07h25.18Q321.49,192.69,321.48,207.8Zm-10.07,0q0-5-5-5H281.2v10.07h25.18C309.73,212.83,311.41,211.16,311.41,207.8Z"/><path class="cls-1" d="M376.87,182.62H336.59v10.07H366.8v10.07H336.59v10.07h40.28V222.9H326.52V172.55h50.35Z"/><path class="cls-1" d="M432.25,182.62H412.11V222.9H402V182.62H381.9V172.55h50.35Z"/><path class="cls-1" d="M487.63,208.64q0,15.11-15.1,15.1H452.39q-15.11,0-15.11-15.1V186.82q0-15.1,15.11-15.1h20.14q15.11,0,15.1,15.1Zm-10.07,0V186.82c0-3.36-1.68-5-5-5H452.39c-3.36,0-5,1.67-5,5v21.82q0,5,5,5h20.14Q477.56,213.67,477.56,208.64Z"/><path class="cls-1" d="M543,222.9H533V202.76H502.74V222.9H492.67V172.55h10.07v20.14H533V172.55H543Z"/></svg>