<?xml version="1.0" encoding="utf-8"?>
<!-- Generator: Adobe Illustrator 26.0.3, SVG Export Plug-In . SVG Version: 6.00 Build 0)  -->
<svg version="1.1" id="Слой_1" xmlns="http://www.w3.org/2000/svg" xmlns:xlink="http://www.w3.org/1999/xlink" x="0px" y="0px"
	 viewBox="0 0 515.7 153.2" style="enable-background:new 0 0 515.7 153.2;" xml:space="preserve">
<style type="text/css">
	.st0{fill:#E81818;}
	.st1{fill:#686565;}
	.st2{fill:url(#SVGID_1_);}
	.st3{fill:url(#SVGID_00000124858427396907893580000003162335627685694376_);}
	.st4{fill:url(#SVGID_00000030462215853185603010000012826781172205252772_);}
	.st5{fill:url(#SVGID_00000183936554177468096640000003552706448006006165_);}
	.st6{fill:url(#SVGID_00000109725305775531737560000008757177453540283013_);}
</style>
<g id="Слой_2_00000113348105509780149820000009134448908365998976_">
	<g id="Слой_1-2">
		<rect x="152.7" y="106" class="st0" width="363" height="6.1"/>
		<path class="st1" d="M165.8,124.4v2.5h-10v6.2c0.9-0.1,1.9-0.2,2.9-0.2c2.1-0.1,4.2,0.5,6,1.6c1.9,1.2,3.1,3.4,3,5.7
			c0.1,1.9-0.6,3.7-1.9,5c-1.9,1.9-5,2.6-8.2,2.6c-1.6,0-3.1-0.1-4.7-0.3v-23.1H165.8z M155.8,145.3c0.8,0.1,1.7,0.2,2.5,0.2
			c1.8,0.1,3.6-0.6,4.9-1.8c0.9-0.9,1.3-2.2,1.3-3.4c0.1-1.5-0.6-2.9-1.9-3.8c-1.3-0.8-2.9-1.2-4.4-1.2c-0.7,0-1.6,0.1-2.4,0.1
			V145.3z"/>
		<path class="st1" d="M190.4,136.7h-9v8.4h10.1v2.5h-13v-23.2h12.5v2.5h-9.6v7.3h9L190.4,136.7z"/>
		<path class="st1" d="M206.8,126.9h-7.1v-2.6h17.2v2.6h-7.1v20.7h-3L206.8,126.9z"/>
		<path class="st1" d="M245,135.7c0,8-4.9,12.2-10.8,12.2c-6.1,0-10.4-4.8-10.4-11.8c0-7.4,4.6-12.2,10.8-12.2S245,128.8,245,135.7z
			 M227,136.1c0,5,2.7,9.4,7.4,9.4s7.4-4.4,7.4-9.6c0-4.6-2.4-9.4-7.4-9.4S227,131,227,136.1z"/>
		<path class="st1" d="M258.8,124.4v9.7H270v-9.7h3v23.2h-3v-10.9h-11.2v10.9h-3v-23.2H258.8z"/>
		<path class="st1" d="M288.1,124.4v9.7h11.2v-9.7h3v23.2h-3v-10.9h-11.2v10.9h-3v-23.2H288.1z"/>
		<path class="st1" d="M317.5,124.4v8.7c0.9-0.1,1.8-0.2,2.8-0.2c4.8,0,9,2.1,9,7.3c0.1,1.8-0.6,3.6-1.8,4.9c-1.9,2-5.1,2.7-8.3,2.7
			c-1.6,0-3.1-0.1-4.6-0.3v-23.2H317.5z M317.5,145.3c0.8,0.1,1.6,0.2,2.4,0.2c3.3,0,6.2-1.7,6.2-5.2s-3.1-5-6.2-5
			c-0.8,0-1.6,0-2.4,0.2L317.5,145.3z M334.8,124.4v23.2h-3v-23.2H334.8z"/>
		<path class="st1" d="M349.9,124.4v9.8c0,3.7-0.1,6.7-0.3,9.8h0.1c1.2-2.4,2.6-4.9,4.3-7.7l7.5-12h3v23.2h-2.8v-9.8
			c0-3.8,0-6.5,0.3-9.4h-0.1c-1.3,2.7-2.7,5.3-4.3,7.8l-7.3,11.6H347v-23.3H349.9z M353.7,119.5c0.1,1.1,0.5,2.1,2.1,2.1
			s2-1,2.1-2.1h2.3c-0.2,2.3-1.5,3.7-4.5,3.7s-4.2-1.4-4.3-3.7H353.7z"/>
		<path class="st1" d="M389.9,125.7c1.8-1.2,3.9-1.8,6.1-1.7c4,0,6.8,2.1,6.8,5.7c0,2.8-2.1,5.1-4.8,5.6v0.1
			c3.3,0.3,5.6,2.5,5.6,5.8c0,4.8-4.2,6.8-8.4,6.8c-2.1,0-4.2-0.5-6.1-1.5l0.8-2.3c1.6,0.9,3.4,1.4,5.2,1.4c3.4,0,5.3-1.9,5.3-4.4
			c0-3.5-3.4-4.5-6.3-4.5h-1.4v-2.3h1.4c3.1,0,5.5-1.9,5.5-4.3s-1.7-3.7-4.2-3.7c-1.7,0.1-3.4,0.6-4.8,1.5L389.9,125.7z"/>
		<path class="st1" d="M418.4,140.3l-2.4,7.3h-3.1l7.9-23.2h3.6l7.9,23.2h-3.2l-2.5-7.3H418.4z M426,137.9l-2.3-6.7
			c-0.5-1.5-0.9-2.9-1.2-4.2h-0.1c-0.3,1.4-0.7,2.8-1.2,4.2l-2.3,6.7H426z"/>
		<path class="st1" d="M442.6,124.7c1.8-0.3,3.6-0.5,5.5-0.5c3,0,4.9,0.5,6.4,1.7c1.3,1,2,2.5,1.9,4.1c-0.1,2.4-1.7,4.4-3.9,5.1v0.1
			c2.8,0.6,4.8,3,4.8,5.8c0,1.8-0.7,3.5-2,4.6c-1.6,1.5-4.2,2.2-8,2.2c-1.6,0-3.1-0.1-4.6-0.3L442.6,124.7z M445.6,134.2h2.7
			c3.2,0,5-1.6,5-3.9c0-2.7-2.1-3.8-5.1-3.8c-0.9,0-1.8,0-2.6,0.2L445.6,134.2z M445.6,145.3c0.8,0.1,1.7,0.2,2.5,0.1
			c3.1,0,6-1.1,6-4.5c0-3.2-2.7-4.5-6-4.5h-2.5V145.3z"/>
		<path class="st1" d="M487.7,135.7c0,8-4.9,12.2-10.8,12.2c-6.1,0-10.4-4.8-10.4-11.8c0-7.4,4.6-12.2,10.8-12.2
			S487.7,128.8,487.7,135.7z M469.7,136.1c0,5,2.7,9.4,7.4,9.4s7.4-4.4,7.4-9.6c0-4.6-2.4-9.4-7.4-9.4S469.7,131,469.7,136.1
			L469.7,136.1z"/>
		<path class="st1" d="M513.7,124.4v20.8l2,0.1l-0.2,8h-2.3l-0.2-5.6h-14.6l-0.2,5.6h-2.3l-0.2-8l1.8-0.1c0.9-1.6,1.7-3.3,2.3-5.1
			c0.8-3.2,1.2-6.5,1.1-9.8v-5.9L513.7,124.4z M503.5,131.2c0.1,3.2-0.3,6.4-1.2,9.5c-0.5,1.5-1.1,3-1.9,4.4h10.3v-18.3h-7.2
			L503.5,131.2z"/>
		
			<linearGradient id="SVGID_1_" gradientUnits="userSpaceOnUse" x1="70.25" y1="133.85" x2="70.25" y2="9.28" gradientTransform="matrix(1 0 0 -1 0 156)">
			<stop  offset="0" style="stop-color:#F22731"/>
			<stop  offset="1" style="stop-color:#D00204"/>
		</linearGradient>
		<polygon class="st2" points="140.5,147.6 121.7,147.6 70.2,39.4 18.8,147.6 0,147.6 70.2,0 		"/>
		
			<linearGradient id="SVGID_00000141448142400766382420000003631344018537657755_" gradientUnits="userSpaceOnUse" x1="30.9299" y1="-4.8799" x2="143.8799" y2="112.0801" gradientTransform="matrix(1 0 0 -1 0 156)">
			<stop  offset="0" style="stop-color:#2F2F2F"/>
			<stop  offset="1" style="stop-color:#858681"/>
		</linearGradient>
		<polygon style="fill:url(#SVGID_00000141448142400766382420000003631344018537657755_);" points="121.7,147.6 120.1,147.6 
			70.2,42.8 26.9,133.8 20.4,147.6 18.8,147.6 70.2,39.4 		"/>
		
			<linearGradient id="SVGID_00000062889239423063961630000010344859400907140781_" gradientUnits="userSpaceOnUse" x1="126.392" y1="122.299" x2="42.312" y2="-44.361" gradientTransform="matrix(1 0 0 -1 0 156)">
			<stop  offset="0" style="stop-color:#2F2F2F"/>
			<stop  offset="1" style="stop-color:#858681"/>
		</linearGradient>
		<polygon style="fill:url(#SVGID_00000062889239423063961630000010344859400907140781_);" points="114.1,147.6 112.4,147.6 
			87.8,95.8 70.2,58.9 47.8,106.1 59.7,95.8 63.6,95.8 45.1,111.8 42.2,114.3 44.9,108.6 44.9,108.6 70.2,55.4 		"/>
		
			<linearGradient id="SVGID_00000041992626286803760680000017720915546523216002_" gradientUnits="userSpaceOnUse" x1="100.2742" y1="79.7453" x2="12.1742" y2="0.6853" gradientTransform="matrix(1 0 0 -1 0 156)">
			<stop  offset="0" style="stop-color:#2F2F2F"/>
			<stop  offset="1" style="stop-color:#858681"/>
		</linearGradient>
		<polygon style="fill:url(#SVGID_00000041992626286803760680000017720915546523216002_);" points="87.8,95.8 28.1,147.6 
			20.4,147.6 26.9,133.8 34.6,133.8 34.7,133.8 78.4,95.8 		"/>
		
			<linearGradient id="SVGID_00000175286061437477170950000016585656226487876770_" gradientUnits="userSpaceOnUse" x1="91.5118" y1="114.1097" x2="62.1518" y2="-47.2803" gradientTransform="matrix(1 0 0 -1 0 156)">
			<stop  offset="0" style="stop-color:#FFFCF8"/>
			<stop  offset="1" style="stop-color:#5C5B57"/>
		</linearGradient>
		<polygon style="fill:url(#SVGID_00000175286061437477170950000016585656226487876770_);" points="44.9,108.6 42.2,114.3 
			45.1,111.8 63.6,95.8 78.4,95.8 34.7,133.8 34.6,133.8 26.9,133.8 70.2,42.8 120.1,147.6 114.1,147.6 70.2,55.4 44.9,108.6 		"/>
		<path class="st1" d="M152.7,88.3l38-79.9l38,79.9H212l-6-12.6h-30.5l-6,12.6H152.7z M200.5,64l-4.7-9.9c-1.1-2.2-2.7-6.1-5-11.7
			c-0.6,1.2-1.4,3.1-2.4,5.7s-1.9,4.6-2.5,5.9L181,64H200.5z"/>
		<path class="st1" d="M269.8,69.7v18.6h-15.3V11.7h29.1l0,0c7.3,0,13.6,1.6,18.7,4.7c4.6,2.7,8.2,6.8,10.4,11.6
			c1.7,3.7,2.5,7.7,2.5,11.7V40c-0.1,4.1-1,8.1-2.6,11.8c-3,6.9-8.6,12.4-15.5,15.3c-4.1,1.5-8.4,2.4-12.7,2.6L269.8,69.7z
			 M269.8,26.9v27.5h13.9c7.3,0,12.3-3,15-8.9c0.8-1.8,1.3-3.8,1.4-5.8v-0.3c0-1.8-0.4-3.5-1.1-5.1c-2.3-5-7.4-7.5-15.2-7.5
			L269.8,26.9z"/>
		<path class="st1" d="M402.1,88.3V42l-59,48.6v-79h15.3v46.6l59-48.6v78.7H402.1z"/>
		<path class="st1" d="M496.5,27c-2.9-1.1-6-1.7-9.1-1.7c-6.6-0.1-12.9,2.5-17.4,7.2c-4.7,4.6-7.4,10.9-7.3,17.5
			c-0.1,6.6,2.5,12.9,7.3,17.5c4.6,4.7,10.9,7.3,17.5,7.2c6.3,0,12.3-2.4,16.9-6.7l10.4,11.2c-3.6,3.5-7.9,6.2-12.6,8
			c-4.7,1.9-9.7,2.8-14.8,2.8c-10.6,0.2-20.9-4.1-28.3-11.7c-7.6-7.4-11.9-17.6-11.7-28.3c-0.2-10.6,4.1-20.9,11.7-28.3
			c7.4-7.6,17.6-11.9,28.3-11.7c5,0,10,0.9,14.7,2.8c4.7,1.8,8.9,4.5,12.6,8L504.3,32C502.1,29.9,499.4,28.2,496.5,27z"/>
	</g>
</g>
</svg>
